<?xml version="1.0" encoding="iso-8859-1"?>
<!-- Generator: Adobe Illustrator 21.0.0, SVG Export Plug-In . SVG Version: 6.00 Build 0)  -->
<svg xmlns="http://www.w3.org/2000/svg" xmlns:xlink="http://www.w3.org/1999/xlink" version="1.1" id="Capa_1" x="0px" y="0px" viewBox="0 0 512 512" style="enable-background:new 0 0 512 512;" xml:space="preserve" width="512" height="512">
<g>
	<g>
		<g>
			<g>
				<g>
					<g>
						<g>
							<g>
								<g>
									<g>
										<g>
											<g>
												<circle style="fill:#FFC200;" cx="256" cy="256" r="256"/>
											</g>
										</g>
									</g>
								</g>
							</g>
						</g>
					</g>
				</g>
			</g>
		</g>
	</g>
	<path style="fill:#FF9500;" d="M512,256c0-2.215-0.028-4.423-0.084-6.624L343,80.46l11.501,62.068L256,44.027l2.295,125.729   L169,80.46l-14.664,330.371l101.163,101.163c0.167,0,0.334,0.006,0.501,0.006C397.385,512,512,397.385,512,256z"/>
	<g>
		<g>
			<path style="fill:#DB0404;" d="M286.596,190.442C286.596,159.291,343,80.461,343,80.461s56.404,78.83,56.404,109.981     S374.151,246.846,343,246.846S286.596,221.593,286.596,190.442z"/>
		</g>
		<g>
			<path style="fill:#FF432E;" d="M112.596,190.442C112.596,159.291,169,80.461,169,80.461s56.404,78.83,56.404,109.981     S200.151,246.846,169,246.846S112.596,221.593,112.596,190.442z"/>
		</g>
		<g>
			<path style="fill:#FF8870;" d="M138.599,195.188c0-17.049,30.869-60.191,30.869-60.191s30.869,43.143,30.869,60.191     s-13.821,30.869-30.869,30.869S138.599,212.237,138.599,195.188z"/>
		</g>
		<g>
			<path style="fill:#FF6C52;" d="M312.131,195.188c0-17.049,30.869-60.191,30.869-60.191s30.869,43.143,30.869,60.191     S360.049,226.058,343,226.058S312.131,212.237,312.131,195.188z"/>
		</g>
	</g>
	<g>
		<path style="fill:#FF432E;" d="M199.596,154.008C199.596,122.857,256,44.027,256,44.027s56.404,78.83,56.404,109.981    S287.151,210.412,256,210.412S199.596,185.159,199.596,154.008z"/>
	</g>
	<g>
		<path style="fill:#DB0404;" d="M256,44.027c0,0-0.039,0.054-0.095,0.133v166.25c0.032,0,0.063,0.002,0.095,0.002    c31.151,0,56.404-25.253,56.404-56.404C312.404,122.857,256,44.027,256,44.027z"/>
	</g>
	<g>
		<path style="fill:#FF8870;" d="M225.131,158.131C225.131,141.082,256,97.94,256,97.94s30.869,43.143,30.869,60.191    S273.049,189,256,189S225.131,175.179,225.131,158.131z"/>
	</g>
	<g>
		<path style="fill:#FF6C52;" d="M256,97.939c0,0-0.033,0.046-0.095,0.134v90.924c0.032,0,0.063,0.002,0.095,0.002    c17.049,0,30.869-13.82,30.869-30.869C286.869,141.083,256,97.939,256,97.939z"/>
	</g>
	<g>
		<g>
			<g>
				<g>
					<g>
						<g>
							<g>
								<g>
									<g>
										<g>
											<g>
												<g>
													<circle style="fill:#555A66;" cx="256" cy="300.353" r="150.144"/>
												</g>
											</g>
										</g>
									</g>
								</g>
							</g>
						</g>
					</g>
				</g>
			</g>
		</g>
		<g>
			<g>
				<g>
					<g>
						<g>
							<g>
								<g>
									<g>
										<g>
											<g>
												<g>
													<path style="fill:#333940;" d="M256,150.209c-0.032,0-0.063,0.001-0.095,0.001v300.285               c0.032,0,0.063,0.001,0.095,0.001c82.922,0,150.144-67.222,150.144-150.144               C406.144,217.431,338.922,150.209,256,150.209z"/>
													<path style="fill:#555A66;" d="M105.856,300.354c0,82.89,67.17,150.091,150.048,150.143V150.211               C173.027,150.263,105.856,217.463,105.856,300.354z"/>
												</g>
											</g>
										</g>
									</g>
								</g>
							</g>
						</g>
					</g>
				</g>
			</g>
		</g>
		<g>
			<g>
				<g>
					<g>
						<g>
							<g>
								<g>
									<g>
										<g>
											<g>
												<g>
													<circle style="fill:#FFFFFF;" cx="256" cy="300.353" r="110.477"/>
												</g>
											</g>
										</g>
									</g>
								</g>
							</g>
						</g>
					</g>
				</g>
			</g>
		</g>
		<g>
			<g>
				<g>
					<g>
						<g>
							<g>
								<g>
									<g>
										<g>
											<g>
												<g>
													<path style="fill:#E9EDF5;" d="M256,189.876c-0.032,0-0.063,0.001-0.095,0.001V410.83c0.032,0,0.063,0.001,0.095,0.001               c61.015,0,110.477-49.463,110.477-110.478C366.477,239.338,317.015,189.876,256,189.876z"/>
												</g>
											</g>
										</g>
									</g>
								</g>
							</g>
						</g>
					</g>
				</g>
			</g>
		</g>
		<g>
			<polygon style="fill:#555A66;" points="270.635,315.354 201.56,315.354 201.56,285.354 240.635,285.354 240.635,224.296      270.635,224.296    "/>
		</g>
		<g>
			<rect x="255.905" y="224.296" style="fill:#333940;" width="14.73" height="91.058"/>
		</g>
	</g>
</g>















</svg>
