<svg id="svg" version="1.1" xmlns="http://www.w3.org/2000/svg" xmlns:xlink="http://www.w3.org/1999/xlink" width="400" height="400" viewBox="0, 0, 400,400"><g id="svgg"><path id="path0" d="M294.956 136.678 C 294.982 137.452,295.145 137.813,295.367 137.591 C 295.590 137.370,295.572 136.867,295.323 136.313 C 294.940 135.463,294.914 135.488,294.956 136.678 M183.407 179.989 C 183.274 180.203,182.409 180.604,181.483 180.881 C 180.557 181.157,179.530 181.601,179.200 181.867 C 178.870 182.133,177.520 183.212,176.200 184.264 C 174.880 185.316,173.734 186.335,173.654 186.527 C 173.573 186.720,173.013 187.445,172.410 188.139 C 171.806 188.832,171.068 190.083,170.769 190.918 C 170.471 191.752,169.915 192.769,169.535 193.178 C 169.155 193.586,168.826 194.253,168.804 194.660 C 168.336 203.401,168.345 204.080,168.960 205.617 C 169.309 206.489,169.569 207.247,169.539 207.301 C 169.321 207.686,170.413 209.843,172.070 212.301 C 174.886 216.478,177.571 218.447,184.133 221.147 C 184.981 221.496,203.280 221.611,256.965 221.603 L 328.665 221.594 331.032 220.650 C 334.508 219.265,335.600 218.712,335.600 218.336 C 335.600 218.151,335.799 218.000,336.042 218.000 C 337.858 218.000,343.666 210.920,344.240 208.007 C 344.304 207.681,344.527 207.358,344.736 207.288 C 344.944 207.219,345.024 206.812,344.912 206.386 C 344.801 205.959,345.000 204.884,345.355 203.997 C 346.143 202.028,346.187 198.935,345.457 196.908 C 345.158 196.079,344.592 194.410,344.199 193.200 C 343.806 191.990,343.240 190.716,342.942 190.369 C 342.644 190.021,342.400 189.591,342.400 189.412 C 342.400 187.844,335.575 181.963,332.200 180.623 C 329.944 179.727,183.953 179.106,183.407 179.989 " stroke="none" fill="#b4b4b4" fill-rule="evenodd"></path><path id="path1" d="M221.200 69.885 C 219.300 70.434,178.749 110.273,176.703 113.600 C 176.230 114.370,175.675 115.115,175.470 115.255 C 174.662 115.809,175.628 116.414,176.524 115.915 C 177.006 115.647,177.490 115.414,177.600 115.397 C 178.092 115.321,180.616 113.841,181.129 113.328 C 181.441 113.016,182.203 112.659,182.823 112.535 C 183.442 112.412,184.044 112.063,184.159 111.762 C 184.275 111.460,184.628 111.313,184.944 111.434 C 185.260 111.555,185.638 111.462,185.783 111.227 C 185.928 110.992,186.487 110.800,187.024 110.800 C 187.561 110.800,188.000 110.570,188.000 110.289 C 188.000 109.935,188.489 109.826,189.600 109.931 C 190.628 110.029,191.200 109.919,191.200 109.624 C 191.200 109.315,191.659 109.250,192.600 109.426 C 193.414 109.579,194.000 109.528,194.000 109.303 C 194.000 109.089,194.936 108.970,196.100 109.036 C 197.801 109.132,197.934 109.100,196.800 108.864 C 194.650 108.418,199.529 108.006,202.400 108.392 C 204.258 108.641,204.382 108.705,203.200 108.798 C 202.170 108.880,202.488 108.992,204.400 109.220 C 205.830 109.390,207.405 109.436,207.900 109.322 C 208.444 109.196,208.800 109.301,208.800 109.587 C 208.800 109.858,209.270 110.023,209.900 109.973 C 210.505 109.925,211.301 110.015,211.669 110.173 C 212.037 110.332,212.603 110.501,212.928 110.548 C 213.253 110.596,213.805 110.872,214.155 111.162 C 214.504 111.452,215.062 111.585,215.395 111.457 C 215.777 111.311,216.000 111.457,216.000 111.855 C 216.000 112.258,216.222 112.400,216.615 112.250 C 216.965 112.115,217.328 112.269,217.458 112.607 C 217.583 112.933,218.016 113.200,218.419 113.200 C 218.823 113.200,219.266 113.383,219.404 113.607 C 219.542 113.830,219.851 113.892,220.089 113.745 C 220.334 113.593,220.410 113.661,220.262 113.899 C 220.054 114.236,222.366 116.039,223.200 116.190 C 223.310 116.210,224.266 117.079,225.324 118.122 C 226.383 119.164,227.445 119.896,227.686 119.747 C 227.940 119.590,228.010 119.660,227.853 119.914 C 227.544 120.415,242.608 135.461,243.247 135.290 C 243.474 135.230,243.559 135.343,243.436 135.542 C 243.171 135.970,260.387 153.311,262.054 154.296 C 262.685 154.668,263.200 155.114,263.200 155.286 C 263.200 155.459,263.446 155.600,263.746 155.600 C 264.046 155.600,264.765 155.972,265.342 156.426 C 265.920 156.880,266.575 157.139,266.799 157.000 C 267.023 156.862,267.468 157.011,267.788 157.331 C 268.572 158.115,279.719 158.056,281.134 157.261 C 281.648 156.972,282.165 156.832,282.283 156.950 C 283.678 158.344,293.577 147.930,293.805 144.827 C 293.835 144.430,294.256 143.432,294.742 142.609 C 295.352 141.574,295.502 140.964,295.226 140.631 C 294.951 140.300,295.089 139.618,295.669 138.445 C 296.464 136.840,296.473 136.703,295.830 136.071 C 295.189 135.441,295.163 135.464,295.406 136.456 C 295.548 137.037,295.503 137.613,295.306 137.734 C 294.933 137.965,294.995 134.887,295.395 133.283 C 295.534 132.728,295.383 132.125,295.012 131.755 C 294.675 131.418,294.400 130.635,294.400 130.014 C 294.400 129.386,294.137 128.785,293.807 128.658 C 293.480 128.533,293.305 128.192,293.417 127.901 C 293.528 127.610,293.266 126.992,292.834 126.529 C 292.402 126.065,292.121 125.612,292.211 125.523 C 292.300 125.434,290.219 123.212,287.586 120.586 C 284.954 117.961,282.800 115.679,282.800 115.517 C 282.800 115.077,262.038 94.400,261.597 94.400 C 261.389 94.400,260.899 93.912,260.509 93.315 C 259.685 92.055,254.509 86.802,254.086 86.797 C 253.929 86.795,252.900 85.902,251.800 84.813 C 250.700 83.725,249.620 82.825,249.400 82.815 C 249.180 82.805,248.415 82.248,247.700 81.578 C 246.985 80.908,246.400 80.486,246.400 80.642 C 246.400 80.797,246.070 80.626,245.668 80.261 C 245.265 79.897,244.815 79.719,244.668 79.866 C 244.520 80.013,244.400 79.823,244.400 79.443 C 244.400 79.063,244.246 78.848,244.058 78.964 C 243.870 79.080,243.304 78.736,242.800 78.200 C 242.296 77.664,241.730 77.320,241.542 77.436 C 241.354 77.552,241.200 77.496,241.200 77.311 C 241.200 77.127,240.705 76.749,240.100 76.472 C 238.072 75.544,237.200 75.012,237.200 74.705 C 237.200 74.537,236.966 74.400,236.680 74.400 C 235.944 74.400,234.007 73.459,234.003 73.100 C 234.001 72.935,233.650 72.800,233.223 72.800 C 232.795 72.800,231.804 72.421,231.019 71.958 C 230.235 71.496,229.338 71.215,229.026 71.335 C 228.714 71.454,228.236 71.285,227.965 70.958 C 227.694 70.631,227.214 70.462,226.900 70.583 C 226.585 70.704,226.119 70.668,225.864 70.505 C 224.421 69.578,222.941 69.381,221.200 69.885 M270.100 242.282 C 269.605 242.378,269.200 242.749,269.200 243.108 C 269.200 243.615,269.093 243.653,268.720 243.280 C 268.108 242.668,267.785 242.675,267.129 243.315 C 266.838 243.599,265.970 244.153,265.200 244.548 C 262.267 246.051,261.750 246.415,260.000 248.202 C 259.010 249.213,257.416 250.796,256.458 251.720 C 253.853 254.233,225.595 282.493,224.899 283.283 C 224.567 283.658,224.095 283.928,223.848 283.883 C 223.602 283.837,223.460 284.070,223.533 284.400 C 223.607 284.730,223.538 284.871,223.380 284.713 C 223.222 284.555,222.643 284.780,222.092 285.213 C 221.542 285.646,220.924 286.000,220.717 286.000 C 220.511 286.000,220.064 286.279,219.723 286.620 C 219.382 286.960,218.575 287.345,217.930 287.474 C 217.215 287.617,216.831 287.904,216.948 288.209 C 217.075 288.539,216.877 288.641,216.370 288.508 C 215.947 288.397,215.600 288.508,215.600 288.753 C 215.600 288.999,215.251 289.200,214.824 289.200 C 214.397 289.200,213.936 289.380,213.800 289.600 C 213.664 289.820,212.953 290.000,212.219 290.000 C 211.410 290.000,210.796 290.233,210.658 290.593 C 210.493 291.024,210.087 291.117,209.175 290.935 C 208.383 290.777,207.810 290.861,207.624 291.162 C 207.461 291.425,206.984 291.615,206.564 291.584 C 206.144 291.552,202.785 291.498,199.100 291.464 C 195.415 291.429,192.400 291.251,192.400 291.070 C 192.400 290.888,191.905 290.780,191.300 290.829 C 189.851 290.946,186.400 290.014,186.400 289.506 C 186.400 289.286,185.950 289.193,185.400 289.298 C 184.850 289.403,184.400 289.377,184.400 289.239 C 184.400 288.988,183.691 288.571,181.300 287.417 C 180.585 287.072,180.000 286.612,180.000 286.395 C 180.000 286.178,179.754 286.000,179.454 286.000 C 179.154 286.000,178.434 285.627,177.854 285.171 C 177.274 284.715,176.800 284.467,176.800 284.620 C 176.800 284.773,176.551 284.691,176.247 284.439 C 174.923 283.340,175.212 285.374,176.748 287.959 C 186.118 303.737,172.777 322.123,155.342 317.458 C 150.945 316.281,150.000 317.169,153.152 319.517 C 153.948 320.110,154.690 320.700,154.800 320.827 C 155.099 321.173,156.553 321.738,156.930 321.654 C 157.111 321.613,157.149 321.759,157.014 321.978 C 156.878 322.197,157.405 322.642,158.184 322.967 C 158.963 323.293,159.600 323.748,159.600 323.980 C 159.600 324.211,159.735 324.364,159.900 324.321 C 160.446 324.177,162.000 324.847,162.000 325.227 C 162.000 325.432,162.360 325.600,162.800 325.600 C 163.240 325.600,163.600 325.780,163.600 326.000 C 163.600 326.220,163.960 326.400,164.400 326.400 C 164.840 326.400,165.200 326.601,165.200 326.847 C 165.200 327.096,165.553 327.201,166.000 327.084 C 166.520 326.948,166.800 327.072,166.800 327.437 C 166.800 327.747,167.072 328.000,167.405 328.000 C 167.738 328.000,168.323 328.159,168.705 328.353 C 169.087 328.548,169.940 328.929,170.600 329.200 C 171.260 329.471,172.113 329.852,172.495 330.047 C 172.877 330.241,173.552 330.400,173.995 330.400 C 174.438 330.400,174.800 330.583,174.800 330.806 C 174.800 331.030,175.322 331.173,175.960 331.124 C 176.598 331.076,177.390 331.260,177.719 331.533 C 178.049 331.807,178.787 331.945,179.359 331.842 C 180.104 331.707,180.400 331.825,180.400 332.257 C 180.400 332.700,180.762 332.830,181.755 332.745 C 182.501 332.680,183.399 332.867,183.751 333.159 C 184.174 333.510,184.870 333.601,185.801 333.426 C 186.863 333.227,187.267 333.310,187.442 333.764 C 187.788 334.667,211.396 334.662,212.298 333.759 C 212.703 333.354,213.279 333.242,214.066 333.414 C 214.782 333.572,215.471 333.473,215.849 333.159 C 216.188 332.878,217.171 332.689,218.033 332.740 C 219.189 332.808,219.600 332.678,219.600 332.243 C 219.600 331.839,219.902 331.708,220.555 331.826 C 221.080 331.921,222.025 331.731,222.655 331.402 C 223.285 331.074,224.079 330.804,224.420 330.802 C 224.761 330.801,225.230 330.610,225.463 330.377 C 225.696 330.144,226.585 329.867,227.439 329.761 C 228.293 329.655,229.164 329.396,229.376 329.184 C 229.587 328.973,230.084 328.800,230.480 328.800 C 230.876 328.800,231.200 328.627,231.200 328.416 C 231.200 328.205,231.965 327.805,232.900 327.527 C 233.835 327.249,234.929 326.657,235.330 326.211 C 235.732 325.765,235.947 325.625,235.807 325.900 C 235.667 326.175,235.743 326.400,235.976 326.400 C 236.209 326.400,236.400 326.147,236.400 325.837 C 236.400 325.472,236.680 325.348,237.200 325.484 C 237.647 325.601,238.000 325.496,238.000 325.247 C 238.000 325.001,238.164 324.800,238.364 324.800 C 238.564 324.800,239.419 324.347,240.264 323.794 C 241.109 323.241,241.918 322.836,242.061 322.894 C 242.205 322.952,242.791 322.495,243.363 321.877 C 243.935 321.260,244.583 320.866,244.802 321.001 C 245.021 321.136,245.200 321.087,245.200 320.891 C 245.200 320.695,245.695 320.288,246.300 319.987 C 246.905 319.685,247.884 319.002,248.474 318.469 C 249.065 317.935,249.965 317.282,250.474 317.017 C 250.984 316.752,251.355 316.324,251.300 316.067 C 251.245 315.810,251.370 315.645,251.577 315.700 C 252.610 315.974,292.800 275.140,292.800 273.817 C 292.800 273.478,292.980 273.200,293.200 273.200 C 293.420 273.200,293.600 272.840,293.600 272.400 C 293.600 271.960,293.780 271.600,294.000 271.600 C 294.220 271.600,294.400 271.060,294.400 270.400 C 294.400 269.740,294.568 269.200,294.773 269.200 C 295.338 269.200,295.748 267.539,295.258 267.236 C 294.807 266.957,295.087 265.200,295.582 265.200 C 295.741 265.200,295.895 264.553,295.924 263.761 C 295.962 262.776,295.825 262.382,295.489 262.510 C 294.933 262.724,294.813 260.527,295.335 259.696 C 295.710 259.100,295.308 257.600,294.773 257.600 C 294.568 257.600,294.400 257.245,294.400 256.812 C 294.400 255.309,291.435 250.728,288.837 248.219 C 287.937 247.349,287.200 246.746,287.200 246.879 C 287.200 247.012,286.688 246.644,286.063 246.060 C 284.432 244.539,281.322 243.083,280.173 243.303 C 279.510 243.430,279.200 243.307,279.200 242.918 C 279.200 242.528,278.945 242.427,278.400 242.600 C 277.941 242.746,277.600 242.672,277.600 242.427 C 277.600 242.008,272.076 241.902,270.100 242.282 " stroke="none" fill="#fb9c1c" fill-rule="evenodd"></path><path id="path2" d="M234.000 2.290 C 233.670 2.415,233.260 2.753,233.089 3.042 C 232.919 3.331,232.537 3.474,232.242 3.361 C 231.636 3.128,229.827 4.072,226.790 6.207 C 224.847 7.573,92.139 139.949,89.259 143.395 C 88.521 144.278,86.766 146.210,85.359 147.689 C 83.951 149.168,82.799 150.518,82.798 150.689 C 82.797 150.860,82.252 151.580,81.587 152.290 C 80.922 152.999,80.361 153.719,80.340 153.890 C 80.286 154.316,77.938 157.742,77.492 158.045 C 77.294 158.179,77.173 158.359,77.225 158.445 C 77.427 158.783,76.723 160.400,76.373 160.400 C 76.168 160.400,76.000 160.760,76.000 161.200 C 76.000 161.640,75.820 162.000,75.600 162.000 C 75.380 162.000,75.200 162.190,75.200 162.422 C 75.200 163.080,73.648 166.323,73.201 166.599 C 72.980 166.736,72.800 167.197,72.800 167.624 C 72.800 168.051,72.620 168.400,72.400 168.400 C 72.180 168.400,72.000 168.760,72.000 169.200 C 72.000 169.640,71.820 170.000,71.600 170.000 C 71.380 170.000,71.200 170.540,71.200 171.200 C 71.200 171.860,70.999 172.400,70.753 172.400 C 70.506 172.400,70.399 172.751,70.512 173.185 C 70.625 173.617,70.466 174.179,70.159 174.434 C 69.851 174.689,69.600 175.315,69.600 175.825 C 69.600 176.335,69.403 176.875,69.162 177.023 C 68.922 177.172,68.807 177.722,68.907 178.246 C 69.007 178.770,68.850 179.514,68.557 179.900 C 68.265 180.285,68.020 181.095,68.013 181.700 C 68.006 182.305,67.820 182.800,67.600 182.800 C 67.378 182.800,67.200 183.867,67.200 185.200 C 67.200 186.520,67.041 187.600,66.847 187.600 C 66.315 187.600,65.970 189.330,66.413 189.773 C 67.030 190.390,66.875 192.000,66.200 192.000 C 65.687 192.000,65.600 193.137,65.600 199.829 C 65.600 206.254,65.708 207.765,66.200 208.257 C 66.930 208.988,66.976 209.598,66.300 209.606 C 65.953 209.610,65.976 209.723,66.374 209.976 C 66.855 210.280,66.862 210.444,66.415 210.981 C 65.860 211.651,66.383 213.600,67.118 213.600 C 67.303 213.600,67.378 214.590,67.285 215.800 C 67.175 217.240,67.269 218.000,67.558 218.000 C 67.801 218.000,68.000 218.529,68.000 219.176 C 68.000 219.823,68.180 220.464,68.400 220.600 C 68.620 220.736,68.800 221.467,68.800 222.224 C 68.800 222.981,68.980 223.600,69.200 223.600 C 69.420 223.600,69.600 224.140,69.600 224.800 C 69.600 225.460,69.747 226.000,69.928 226.000 C 70.108 226.000,70.504 226.911,70.807 228.025 C 71.110 229.139,71.503 230.140,71.679 230.249 C 71.856 230.358,72.000 230.887,72.000 231.424 C 72.000 231.961,72.180 232.400,72.400 232.400 C 72.620 232.400,72.800 232.683,72.800 233.029 C 72.800 233.374,73.079 233.936,73.420 234.277 C 73.760 234.618,74.143 235.415,74.270 236.048 C 74.396 236.682,74.658 237.200,74.850 237.200 C 75.043 237.200,75.200 237.560,75.200 238.000 C 75.200 238.440,75.380 238.800,75.600 238.800 C 75.820 238.800,76.000 239.171,76.000 239.624 C 76.000 240.077,76.167 240.344,76.371 240.218 C 76.575 240.092,76.867 240.396,77.019 240.894 C 77.170 241.392,77.571 242.115,77.909 242.500 C 78.247 242.885,78.361 243.203,78.162 243.206 C 77.963 243.209,78.011 243.346,78.268 243.510 C 78.525 243.674,78.795 244.071,78.868 244.392 C 78.941 244.714,79.494 245.522,80.098 246.188 C 80.702 246.855,81.197 247.545,81.198 247.722 C 81.199 247.899,81.739 248.619,82.398 249.322 C 83.057 250.025,83.597 250.732,83.598 250.893 C 83.601 251.326,86.723 254.630,92.685 260.511 C 95.592 263.379,97.876 265.876,97.762 266.062 C 97.647 266.248,97.793 266.400,98.087 266.400 C 98.729 266.400,104.000 271.630,104.000 272.267 C 104.000 272.729,105.147 273.383,105.730 273.254 C 105.911 273.213,105.968 273.328,105.856 273.509 C 105.639 273.860,118.922 287.600,119.478 287.600 C 120.047 287.600,144.024 311.842,143.738 312.128 C 143.589 312.278,143.727 312.400,144.046 312.400 C 144.364 312.400,145.694 313.480,147.000 314.800 C 148.306 316.120,149.549 317.200,149.762 317.200 C 149.974 317.200,150.577 317.602,151.100 318.094 L 152.052 318.988 151.636 317.894 C 151.122 316.544,151.682 316.478,155.342 317.458 C 172.801 322.130,186.118 303.736,176.726 287.922 C 175.528 285.905,175.229 285.077,175.516 284.565 C 175.831 284.002,170.842 278.832,146.548 254.541 C 130.407 238.402,117.200 225.112,117.200 225.007 C 117.200 224.902,116.481 223.868,115.602 222.708 C 114.723 221.549,114.003 220.375,114.002 220.100 C 114.001 219.825,113.820 219.600,113.600 219.600 C 113.380 219.600,113.200 219.330,113.200 219.000 C 113.200 218.670,113.020 218.400,112.800 218.400 C 112.580 218.400,112.400 218.099,112.400 217.731 C 112.400 217.364,112.122 216.756,111.783 216.381 C 111.443 216.006,111.056 215.002,110.922 214.150 C 110.788 213.297,110.442 212.459,110.152 212.287 C 109.809 212.083,109.708 211.560,109.863 210.787 C 110.023 209.984,109.940 209.600,109.607 209.600 C 109.302 209.600,109.190 209.255,109.314 208.700 C 109.424 208.205,109.380 206.450,109.216 204.800 C 109.011 202.741,108.899 202.333,108.859 203.500 C 108.826 204.435,108.665 205.200,108.500 205.201 C 108.335 205.201,108.278 202.996,108.373 200.301 C 108.502 196.622,108.612 195.849,108.813 197.200 C 109.103 199.158,109.460 195.664,109.293 192.500 C 109.255 191.785,109.404 191.200,109.624 191.200 C 109.845 191.200,109.982 190.559,109.929 189.775 C 109.876 188.992,110.025 188.227,110.259 188.075 C 110.493 187.924,110.808 187.131,110.958 186.313 C 111.108 185.495,111.494 184.563,111.816 184.241 C 112.137 183.920,112.400 183.374,112.400 183.029 C 112.400 182.683,112.559 182.400,112.753 182.400 C 112.948 182.400,113.213 182.085,113.342 181.700 C 113.769 180.433,115.116 178.352,116.863 176.260 C 119.221 173.436,169.843 122.500,175.600 117.157 C 176.370 116.443,176.691 115.972,176.313 116.112 C 175.362 116.462,175.016 115.727,175.774 114.968 C 176.119 114.624,176.400 114.138,176.400 113.887 C 176.400 113.636,186.151 103.670,198.068 91.739 C 220.550 69.232,220.900 68.924,223.300 69.525 C 223.465 69.566,223.600 69.365,223.600 69.078 C 223.600 68.790,230.624 61.545,239.210 52.978 C 254.476 37.742,257.600 34.357,257.600 33.046 C 257.600 32.691,257.780 32.400,258.000 32.400 C 258.220 32.400,258.400 31.961,258.400 31.424 C 258.400 30.887,258.580 30.336,258.800 30.200 C 259.020 30.064,259.200 29.503,259.200 28.953 C 259.200 28.403,259.360 28.051,259.555 28.172 C 259.750 28.292,260.017 27.988,260.149 27.496 C 260.712 25.396,260.224 18.215,259.547 18.633 C 259.356 18.751,259.200 18.397,259.200 17.847 C 259.200 17.297,259.020 16.736,258.800 16.600 C 258.580 16.464,258.400 15.996,258.400 15.560 C 258.400 13.626,251.758 5.600,250.157 5.600 C 249.887 5.600,249.607 5.465,249.533 5.300 C 249.296 4.765,245.681 3.103,245.286 3.347 C 245.076 3.477,244.480 3.217,243.963 2.768 C 243.340 2.227,242.750 2.043,242.212 2.222 C 240.374 2.831,238.304 2.891,237.952 2.347 C 237.657 1.888,237.544 1.887,237.251 2.341 C 236.983 2.757,236.710 2.780,236.077 2.441 C 235.184 1.963,234.915 1.944,234.000 2.290 M295.479 138.557 C 295.315 138.974,295.275 139.409,295.391 139.524 C 295.755 139.889,296.076 139.291,295.924 138.531 C 295.783 137.835,295.762 137.836,295.479 138.557 M186.601 179.198 C 186.368 179.575,327.045 180.021,327.422 179.644 C 327.508 179.559,327.483 179.334,327.366 179.144 C 327.056 178.644,186.911 178.697,186.601 179.198 M168.000 200.376 C 168.000 202.783,168.135 204.836,168.300 204.938 C 168.465 205.040,168.600 203.071,168.600 200.562 C 168.600 198.053,168.465 196.000,168.300 196.000 C 168.135 196.000,168.000 197.969,168.000 200.376 M346.093 200.800 C 346.093 201.570,346.175 201.885,346.276 201.500 C 346.376 201.115,346.376 200.485,346.276 200.100 C 346.175 199.715,346.093 200.030,346.093 200.800 M170.400 210.161 C 170.400 210.543,172.776 214.000,173.038 214.000 C 173.148 214.000,172.661 213.145,171.954 212.100 C 170.388 209.783,170.400 209.797,170.400 210.161 M187.600 290.153 C 187.600 290.238,188.050 290.393,188.600 290.498 C 189.150 290.603,189.600 290.534,189.600 290.345 C 189.600 290.155,189.150 290.000,188.600 290.000 C 188.050 290.000,187.600 290.069,187.600 290.153 " stroke="none" fill="#040404" fill-rule="evenodd"></path></g></svg>